<svg width="46" height="46" viewBox="0 0 46 46" fill="none" xmlns="http://www.w3.org/2000/svg">
<rect width="46" height="46" rx="3.91489" fill="#004C46" fill-opacity="0.09"/>
<g clip-path="url(#clip0_257_1987)">
<path d="M22.9988 16.5688L15.6346 23.7883C15.3356 24.087 15.0984 24.4417 14.9365 24.8321C14.7747 25.2224 14.6914 25.6409 14.6914 26.0635C14.6914 26.4861 14.7747 26.9046 14.9365 27.295C15.0984 27.6854 15.3356 28.04 15.6346 28.3387L17.6605 30.3647C17.9592 30.6636 18.3138 30.9008 18.7042 31.0627C19.0946 31.2245 19.5131 31.3078 19.9357 31.3078C20.3583 31.3078 20.7768 31.2245 21.1672 31.0627C21.5576 30.9008 21.9122 30.6636 22.2109 30.3647L29.4304 23.0005" stroke="#004C46" stroke-width="1.46809" stroke-linecap="round" stroke-linejoin="round"/>
<path d="M28.627 12.5488L33.4507 17.3725" stroke="#004C46" stroke-width="1.46809" stroke-linecap="round" stroke-linejoin="round"/>
<path d="M26.2158 19.7846L31.0395 14.9609" stroke="#004C46" stroke-width="1.46809" stroke-linecap="round" stroke-linejoin="round"/>
<path d="M16.648 29.3513L12.5479 33.4515" stroke="#004C46" stroke-width="1.46809" stroke-linecap="round" stroke-linejoin="round"/>
<path d="M20.5879 14.1562L31.8432 25.4116" stroke="#004C46" stroke-width="1.46809" stroke-linecap="round" stroke-linejoin="round"/>
</g>
<defs>
<clipPath id="clip0_257_1987">
<rect width="22.5106" height="22.5106" fill="white" transform="translate(11.7441 11.7446)"/>
</clipPath>
</defs>
</svg>
