<svg width="218" height="88" viewBox="0 0 218 88" fill="none" xmlns="http://www.w3.org/2000/svg">
<g clip-path="url(#clip0_257_2121)">
<path opacity="0.46" d="M21.3575 9.04367C7.64873 22.6222 13.4291 57.1524 13.4291 57.1524C13.4291 57.1524 48.2935 62.9064 62.0088 49.3278C75.7046 35.7364 69.9242 1.20616 69.9242 1.20616C69.9242 1.20616 35.0598 -4.5478 21.3575 9.04367Z" fill="#D5E2DD"/>
<path d="M33.0299 15.1716C42.13 24.1832 38.2895 47.0958 38.2895 47.0958C38.2895 47.0958 15.155 50.9145 6.05489 41.903C-3.03224 32.8851 0.808313 9.97243 0.808313 9.97243C0.808313 9.97243 23.9427 6.15366 33.0364 15.1716" fill="white"/>
<path d="M27.2757 37.091C26.2342 38.0134 25.0169 38.6198 23.689 39.0068C19.7964 40.1486 15.9493 40.0583 12.1804 38.465C11.1454 38.0263 10.221 37.4071 9.47895 36.5427C8.84103 35.8009 8.51556 35.5751 8.52207 34.5881C8.53509 33.6205 8.52858 32.3949 8.52207 30.8403C11.3602 32.2466 14.2699 33.6851 17.2902 35.1881C17.7329 35.4074 18.1885 35.517 18.6442 35.517C19.0999 35.517 19.536 35.4074 19.9591 35.201C22.8883 33.7496 25.8176 32.2917 28.7468 30.8403C28.7468 32.3111 28.7338 33.5109 28.7598 34.4075C28.8054 35.7622 28.2521 36.2137 27.2626 37.091H27.2757Z" fill="#004C46"/>
<path d="M35.002 24.1319C34.8393 24.0222 34.657 23.9448 34.4813 23.861C29.5211 21.4033 24.5609 18.9585 19.6138 16.4815C18.9238 16.1331 18.3705 16.1331 17.6805 16.4815C12.7333 18.965 7.77316 21.4097 2.81299 23.8545C2.38337 24.0674 1.99932 24.2996 1.79102 24.7512V25.4027C1.9863 25.6865 2.18158 25.9574 2.51356 26.1187C7.68203 28.6731 12.844 31.2276 18.0059 33.7885C18.4291 34.0014 18.8391 34.0143 19.2623 33.8014C23.1354 31.8791 27.0085 29.9568 30.8881 28.0345L20.0108 25.6543C19.6593 25.9187 19.1776 26.08 18.6504 26.08C17.5893 26.08 16.7236 25.4285 16.7236 24.6286C16.7236 23.8287 17.5828 23.1772 18.6504 23.1772C19.5422 23.1772 20.2973 23.6352 20.5121 24.2545L32.9906 26.9895C33.4593 26.7573 33.928 26.5251 34.3966 26.2929C34.5984 26.1897 34.8197 26.1058 35.002 25.9768C35.6725 25.5188 35.6725 24.5899 35.002 24.1319Z" fill="#004C46"/>
<path d="M32.9379 28.7378V35.698H31.5059V29.4474L32.9379 28.7378Z" fill="#004C46"/>
<path d="M33.6078 40.2324C32.6704 41.1612 30.2945 40.7678 30.2945 40.7678C30.2945 40.7678 29.8974 38.4068 30.8347 37.4844C31.7721 36.5555 34.148 36.949 34.148 36.949C34.148 36.949 34.5451 39.3099 33.6078 40.2324Z" fill="#004C46"/>
<path d="M43.1836 22.8936H51.7825C56.7817 22.8936 60.8827 25.3512 60.8827 31.0213C60.8827 36.6914 56.7492 39.1814 51.7825 39.1814H48.2219V47.1285H43.1901V22.8936H43.1836ZM51.6393 34.8014C54.1194 34.8014 55.7012 33.6983 55.7012 31.0278C55.7012 28.3572 54.0478 27.2864 51.6393 27.2864H48.2219V34.8014H51.6393Z" fill="white"/>
<path d="M63.3945 31.9441H68.2505L68.1789 34.6921C69.2921 32.1957 71.0952 31.6216 72.6769 31.6216C73.6859 31.6216 74.441 31.9054 75.0464 32.2279L73.4971 36.6144C72.8852 36.3305 72.3124 36.1499 71.6289 36.1499C69.4353 36.1499 68.2505 37.1498 68.2505 40.388V47.1289H63.3945V31.9441Z" fill="white"/>
<path d="M76.9746 40.7162V31.9498H81.8306V40.3937C81.8306 42.1095 82.6573 43.1029 84.3823 43.1029C86.3221 43.1029 87.4027 41.9999 87.4027 40.0711V31.9434H92.2587V47.1281H87.4027L87.5068 44.6317C86.5695 46.4508 84.8119 47.4442 82.6899 47.4442C79.344 47.4442 76.9746 45.0188 76.9746 40.7098" fill="white"/>
<path d="M100.871 31.9434H96.0146V47.1281H100.871V31.9434Z" fill="white"/>
<path d="M105.694 41.4258V35.9364H103.429V31.9434H105.694V26.5249H110.517V31.9434H114.436V35.9364H110.517V41.5678C110.517 43.0966 111.019 43.4191 111.774 43.4191C112.529 43.4191 113.141 42.9869 113.466 42.774L115.295 46.1219C114.54 46.7283 113.245 47.5152 111.019 47.5152C107.927 47.5152 105.7 45.98 105.7 41.4194" fill="white"/>
<path d="M118.803 41.4258V35.9364H116.538V31.9434H118.803V26.5249H123.626V31.9434H127.545V35.9364H123.626V41.5678C123.626 43.0966 124.128 43.4191 124.883 43.4191C125.638 43.4191 126.25 42.9869 126.575 42.774L128.411 46.1219C127.656 46.7283 126.36 47.5152 124.134 47.5152C121.042 47.5152 118.816 45.98 118.816 41.4194" fill="white"/>
<path d="M133.149 21.3716H134.725V33.9116H149.911V21.3716H151.486V47.2192H149.911V35.3243H134.725V47.2192H133.149V21.3716Z" fill="white"/>
<path d="M162.422 46.1931C165.026 46.1931 166.751 45.1674 167.91 43.7612L168.906 44.6385C167.519 46.3479 165.339 47.5283 162.422 47.5283C157.469 47.5283 154.247 43.916 154.247 39.4715C154.247 35.027 157.664 31.376 162.11 31.376C166.868 31.376 169.863 35.0657 169.785 39.7747H155.783C155.9 43.5354 158.393 46.1995 162.422 46.1995M168.248 38.5555C168.014 35.3625 166.022 32.6597 162.11 32.6597C158.549 32.6597 156.206 35.1689 155.822 38.5555H168.255H168.248Z" fill="white"/>
<path d="M183.058 37.4848C183.058 33.9886 181.45 32.6598 178.873 32.6598C176.497 32.6598 174.889 33.6531 173.769 35.3239L172.695 34.5627C173.997 32.5501 176.23 31.3696 178.912 31.3696C182.134 31.3696 184.549 33.3113 184.549 37.3365V47.2188H183.052L183.13 44.8256C182.134 46.3093 180.409 47.5284 177.721 47.5284C174.153 47.5284 171.81 45.89 171.81 42.7743C171.81 39.6587 174.531 38.2524 177.525 38.2524H183.045V37.4913L183.058 37.4848ZM177.727 39.4652C175.351 39.4652 173.314 40.3812 173.314 42.7356C173.314 45.0901 174.889 46.1932 177.877 46.1932C180.487 46.1932 183.052 44.6708 183.052 42.2776V39.4652H177.721H177.727Z" fill="white"/>
<path d="M189.84 19.771H188.35V47.212H189.84V19.771Z" fill="white"/>
<path d="M195.061 43.1091V32.9622H192.607V31.7044H195.061V26.2729H196.558V31.7044H201.082V32.9622H196.558V43.0704C196.558 45.3474 197.365 46.186 198.667 46.186C200.047 46.186 200.587 45.6571 201.16 45.0443L202.124 45.9603C201.356 46.8311 200.431 47.5149 198.667 47.5149C196.675 47.5149 195.061 46.2634 195.061 43.1026" fill="white"/>
<path d="M204.728 19.771H206.225V35.0138C207.26 32.8142 209.408 31.3628 212.168 31.3628C215.657 31.3628 218.001 33.6785 218.001 37.5231V47.212H216.504V37.7811C216.504 34.5881 215.013 32.7303 211.979 32.7303C208.608 32.7303 206.225 34.9364 206.225 38.5488V47.212H204.728V19.771Z" fill="white"/>
<path d="M71.585 55.9785H73.3881V71.7955H71.585V55.9785Z" fill="white"/>
<path d="M78.0617 55.9785H79.7476L89.8047 68.654V55.9785H91.5622V71.7955H90.1236L79.8127 58.8232V71.7955H78.0552V55.9785H78.0617Z" fill="white"/>
<path d="M95.0327 69.4991L96.1523 68.1896C97.8187 69.6797 99.4135 70.428 101.627 70.428C103.84 70.428 105.187 69.2991 105.187 67.7381V67.6929C105.187 66.2222 104.387 65.3901 101.034 64.6869C97.3631 63.8935 95.6771 62.7195 95.6771 60.1199V60.0747C95.6771 57.5913 97.8903 55.7593 100.924 55.7593C103.248 55.7593 104.914 56.4172 106.535 57.7009L105.487 59.0813C104.003 57.8815 102.525 57.3655 100.878 57.3655C98.8017 57.3655 97.4802 58.4943 97.4802 59.9199V59.9651C97.4802 61.4552 98.3004 62.2938 101.816 63.0356C105.376 63.8032 107.017 65.0933 107.017 67.5123V67.5575C107.017 70.2667 104.738 72.0342 101.568 72.0342C99.036 72.0342 96.9595 71.1956 95.0457 69.5056L95.0327 69.4991Z" fill="white"/>
<path d="M114.554 57.6299H109.197V55.9785H121.74V57.6299H116.383V71.8019H114.561V57.6299H114.554Z" fill="white"/>
<path d="M125.273 55.9785H127.077V71.7955H125.273V55.9785Z" fill="white"/>
<path d="M135.976 57.6299H130.619V55.9785H143.162V57.6299H137.805V71.8019H135.982V57.6299H135.976Z" fill="white"/>
<path d="M146.281 65.1771V55.9785H148.084V65.061C148.084 68.4734 149.907 70.3957 152.966 70.3957C156.025 70.3957 157.776 68.6346 157.776 65.1771V55.9785H159.579V65.0416C159.579 69.6538 156.911 72.047 152.92 72.047C148.93 72.047 146.281 69.6538 146.281 65.1771Z" fill="white"/>
<path d="M168.068 57.6299H162.71V55.9785H175.254V57.6299H169.897V71.8019H168.074V57.6299H168.068Z" fill="white"/>
<path d="M178.625 55.9786H190.166V57.6042H180.428V63.0034H189.138V64.6289H180.428V70.1635H190.277V71.7891H178.625V55.9722V55.9786Z" fill="white"/>
<path d="M100.59 28.402C99.138 29.8404 95.4537 29.2341 95.4537 29.2341C95.4537 29.2341 94.8418 25.5766 96.2934 24.1445C97.745 22.7061 101.436 23.3124 101.436 23.3124C101.436 23.3124 102.048 26.9699 100.596 28.402" fill="white"/>
<path d="M57.0819 79.5034H57.5571L58.8525 86.1153H58.3513L58.0128 84.2769H54.1006L52.7597 86.1153H52.2129L57.0884 79.5034H57.0819ZM57.9151 83.8382L57.2056 80.0388L54.4196 83.8382H57.9151Z" fill="white"/>
<path d="M59.9863 84.2255C59.9863 82.529 61.2752 81.2259 62.7138 81.2259C63.7943 81.2259 64.3867 81.8839 64.634 82.5676L65.5258 79.2778H65.988L64.1393 86.1284H63.6772L63.9245 85.1995C63.4428 85.7736 62.7854 86.251 61.9261 86.251C60.8065 86.251 59.9863 85.4188 59.9863 84.2319V84.2255ZM64.3997 83.3224C64.3997 82.3999 63.7292 81.6517 62.7333 81.6517C61.4249 81.6517 60.4876 82.845 60.4876 84.1674C60.4876 85.1543 61.0994 85.8059 61.9847 85.8059C63.189 85.8059 64.3997 84.5931 64.3997 83.3224Z" fill="white"/>
<path d="M66.5078 81.3359H67.009L67.6795 85.6063L70.6413 81.3359H71.2011L67.7576 86.1546H67.3605L66.5078 81.3359Z" fill="white"/>
<path d="M70.9215 84.8899C70.9215 83.832 71.8329 83.1547 73.0957 83.1547C73.7857 83.1547 74.4692 83.2966 74.9509 83.4256L74.9899 83.2966C75.029 83.1547 75.055 82.9483 75.055 82.8192C75.055 82.0968 74.5408 81.6968 73.5969 81.6968C73.0696 81.6968 72.6596 81.7936 72.1974 81.9484L72.1128 81.5356C72.588 81.3679 73.0436 81.2646 73.636 81.2646C74.8207 81.2646 75.5107 81.8387 75.5107 82.7547C75.5107 82.9354 75.4716 83.1676 75.413 83.3804L74.6775 86.122H74.2218L74.4366 85.2963C73.9745 85.8381 73.3365 86.2316 72.4968 86.2316C71.6571 86.2316 70.915 85.7801 70.915 84.8899H70.9215ZM74.7426 84.2126L74.8532 83.7933C74.3585 83.6707 73.7336 83.5675 73.0241 83.5675C72.0607 83.5675 71.4032 84.09 71.4032 84.8318C71.4032 85.4253 71.8589 85.8059 72.5749 85.8059C73.4863 85.8059 74.4692 85.1802 74.7361 84.2126H74.7426Z" fill="white"/>
<path d="M77.632 81.3358H78.0941L77.8598 82.226C78.335 81.6648 78.8753 81.2197 79.6889 81.2197C80.6458 81.2197 81.2707 81.8196 81.2707 82.7421C81.2707 82.9485 81.2252 83.1936 81.1666 83.4194L80.4505 86.1222H79.9884L80.7239 83.3807C80.7695 83.2001 80.802 82.9678 80.802 82.7872C80.802 82.0712 80.3269 81.6326 79.5587 81.6326C78.7321 81.6326 77.8272 82.3744 77.5408 83.4129L76.8118 86.1157H76.3496L77.6385 81.3294L77.632 81.3358Z" fill="white"/>
<path d="M82.3639 84.1677C82.3639 82.6002 83.6788 81.2197 85.202 81.2197C86.185 81.2197 86.8034 81.7745 87.0963 82.3744L86.7057 82.5873C86.4128 82.0777 85.9767 81.6519 85.1695 81.6519C83.9392 81.6519 82.8586 82.8259 82.8586 84.1354C82.8586 85.2127 83.6463 85.7932 84.486 85.7932C85.1109 85.7932 85.6056 85.5223 86.0483 85.1095L86.3607 85.4062C85.866 85.8771 85.2541 86.2254 84.46 86.2254C83.3989 86.2254 82.3574 85.4771 82.3574 84.1612L82.3639 84.1677Z" fill="white"/>
<path d="M88.8222 81.3356H89.2844L87.989 86.122H87.5269L88.8222 81.3356ZM89.2779 79.4585H89.8572L89.688 80.0842H89.1086L89.2779 79.4585Z" fill="white"/>
<path d="M91.1134 81.3358H91.5756L91.3412 82.226C91.8164 81.6648 92.3567 81.2197 93.1704 81.2197C94.1273 81.2197 94.7522 81.8196 94.7522 82.7421C94.7522 82.9485 94.7066 83.1936 94.648 83.4194L93.932 86.1222H93.4698L94.2054 83.3807C94.2509 83.2001 94.2835 82.9678 94.2835 82.7872C94.2835 82.0712 93.8083 81.6326 93.0402 81.6326C92.2135 81.6326 91.3087 82.3744 91.0223 83.4129L90.2932 86.1157H89.8311L91.1199 81.3294L91.1134 81.3358Z" fill="white"/>
<path d="M95.3234 86.7478L95.6619 86.4124C96.1761 86.8897 96.8336 87.2123 97.6212 87.2123C98.2917 87.2123 98.7929 86.9865 99.1054 86.6768C99.4243 86.3543 99.6196 85.9544 99.7693 85.419L99.9386 84.8191C99.4569 85.3287 98.819 85.7673 97.9532 85.7673C96.9247 85.7673 95.9353 85.0706 95.9353 83.9095C95.9353 82.3162 97.3088 81.2261 98.6692 81.2261C99.7889 81.2261 100.277 81.8711 100.55 82.5033L100.863 81.3422H101.325L100.199 85.5351C100.017 86.1931 99.7758 86.6317 99.4439 86.9607C98.9882 87.4122 98.4024 87.6444 97.5952 87.6444C96.7425 87.6444 95.8897 87.2961 95.3169 86.7543L95.3234 86.7478ZM100.349 83.1935C100.349 82.4323 99.7173 81.6647 98.6562 81.6647C97.5301 81.6647 96.443 82.5678 96.443 83.8773C96.443 84.832 97.2307 85.3287 98.0443 85.3287C99.2551 85.3287 100.355 84.2708 100.355 83.1871L100.349 83.1935Z" fill="white"/>
<path d="M106.522 79.5547H107.016L106.19 82.5929H110.382L111.208 79.5547H111.703L109.926 86.1214H109.431L110.265 83.0445H106.073L105.239 86.1214H104.745L106.522 79.5547Z" fill="white"/>
<path d="M112.555 83.8838C112.535 83.9935 112.535 84.0967 112.535 84.1999C112.535 85.1675 113.186 85.7932 114.137 85.7932C114.866 85.7932 115.321 85.5287 115.784 85.1546L116.057 85.4836C115.556 85.8964 115.009 86.2254 114.137 86.2254C112.906 86.2254 112.034 85.3997 112.034 84.2193C112.034 82.7292 113.258 81.2197 114.827 81.2197C116.037 81.2197 116.656 82.0648 116.656 83.0517C116.656 83.3678 116.61 83.6452 116.526 83.8838H112.561H112.555ZM112.64 83.471H116.142C116.161 83.3871 116.181 83.2581 116.181 83.0775C116.181 82.3099 115.758 81.6455 114.82 81.6455C113.733 81.6455 112.919 82.4905 112.646 83.4774L112.64 83.471Z" fill="white"/>
<path d="M117.293 84.8899C117.293 83.832 118.205 83.1547 119.468 83.1547C120.158 83.1547 120.841 83.2966 121.323 83.4256L121.362 83.2966C121.401 83.1547 121.427 82.9483 121.427 82.8192C121.427 82.0968 120.913 81.6968 119.969 81.6968C119.442 81.6968 119.031 81.7936 118.569 81.9484L118.485 81.5356C118.96 81.3679 119.409 81.2646 120.008 81.2646C121.193 81.2646 121.883 81.8387 121.883 82.7547C121.883 82.9354 121.844 83.1676 121.791 83.3804L121.056 86.122H120.6L120.815 85.2963C120.353 85.8381 119.715 86.2316 118.875 86.2316C118.036 86.2316 117.293 85.7801 117.293 84.8899ZM121.121 84.2126L121.232 83.7933C120.737 83.6707 120.112 83.5675 119.402 83.5675C118.439 83.5675 117.782 84.09 117.782 84.8318C117.782 85.4253 118.237 85.8059 118.953 85.8059C119.865 85.8059 120.848 85.1802 121.114 84.2126H121.121Z" fill="white"/>
<path d="M124.643 79.2715H125.105L123.25 86.122H122.788L124.643 79.2715Z" fill="white"/>
<path d="M125.646 85.2583C125.646 85.1099 125.672 84.9229 125.705 84.8003L126.531 81.7621H125.828L125.939 81.3428H126.642L127.059 79.814H127.521L127.104 81.3428H128.771L128.66 81.7621H126.993L126.173 84.8132C126.147 84.9358 126.128 85.1035 126.128 85.2196C126.128 85.6131 126.434 85.7937 126.915 85.7937C127.124 85.7937 127.338 85.7485 127.618 85.6453L127.495 86.0969C127.241 86.1936 127.059 86.2194 126.811 86.2194C126.167 86.2194 125.659 85.9292 125.659 85.2712L125.646 85.2583Z" fill="white"/>
<path d="M130.689 79.2716H131.151L130.344 82.226C130.82 81.6648 131.36 81.2197 132.173 81.2197C133.13 81.2197 133.755 81.8196 133.755 82.742C133.755 82.9484 133.71 83.1936 133.651 83.4193L132.929 86.1221H132.466L133.202 83.3806C133.248 83.2 133.28 82.9678 133.28 82.7872C133.28 82.0712 132.805 81.6325 132.037 81.6325C131.217 81.6325 130.305 82.3743 130.019 83.4129L129.29 86.1157H128.828L130.683 79.2651L130.689 79.2716Z" fill="white"/>
<path d="M134.836 84.1677C134.836 82.6002 136.151 81.2197 137.674 81.2197C138.657 81.2197 139.276 81.7745 139.568 82.3744L139.178 82.5873C138.885 82.0777 138.449 81.6519 137.642 81.6519C136.411 81.6519 135.331 82.8259 135.331 84.1354C135.331 85.2127 136.118 85.7932 136.958 85.7932C137.583 85.7932 138.078 85.5223 138.52 85.1095L138.833 85.4062C138.338 85.8771 137.726 86.2254 136.932 86.2254C135.871 86.2254 134.83 85.4771 134.83 84.1612L134.836 84.1677Z" fill="white"/>
<path d="M139.907 84.8899C139.907 83.832 140.818 83.1547 142.081 83.1547C142.771 83.1547 143.454 83.2966 143.936 83.4256L143.975 83.2966C144.014 83.1547 144.04 82.9483 144.04 82.8192C144.04 82.0968 143.526 81.6968 142.582 81.6968C142.055 81.6968 141.645 81.7936 141.183 81.9484L141.098 81.5356C141.573 81.3679 142.022 81.2646 142.621 81.2646C143.806 81.2646 144.496 81.8387 144.496 82.7547C144.496 82.9354 144.457 83.1676 144.405 83.3804L143.669 86.122H143.214L143.428 85.2963C142.966 85.8381 142.328 86.2316 141.489 86.2316C140.649 86.2316 139.907 85.7801 139.907 84.8899ZM143.734 84.2126L143.845 83.7933C143.35 83.6707 142.725 83.5675 142.016 83.5675C141.052 83.5675 140.395 84.09 140.395 84.8318C140.395 85.4253 140.851 85.8059 141.567 85.8059C142.478 85.8059 143.461 85.1802 143.728 84.2126H143.734Z" fill="white"/>
<path d="M146.626 81.336H147.088L146.73 82.6971C147.361 81.8134 148.188 81.207 149.21 81.2651L149.08 81.7747H149.041C147.921 81.7747 146.743 82.6455 146.333 84.1678L145.805 86.1288H145.343L146.632 81.3425L146.626 81.336Z" fill="white"/>
<path d="M149.794 83.8838C149.775 83.9935 149.775 84.0967 149.775 84.1999C149.775 85.1675 150.426 85.7932 151.376 85.7932C152.105 85.7932 152.561 85.5287 153.023 85.1546L153.296 85.4836C152.795 85.8964 152.248 86.2254 151.376 86.2254C150.146 86.2254 149.273 85.3997 149.273 84.2193C149.273 82.7292 150.497 81.2197 152.066 81.2197C153.277 81.2197 153.895 82.0648 153.895 83.0517C153.895 83.3678 153.85 83.6452 153.765 83.8838H149.801H149.794ZM149.879 83.471H153.381C153.4 83.3871 153.42 83.2581 153.42 83.0775C153.42 82.3099 152.997 81.6455 152.059 81.6455C150.972 81.6455 150.159 82.4905 149.885 83.4774L149.879 83.471Z" fill="white"/>
<path d="M159.28 79.5547H163.947L163.823 80.0062H159.651L158.948 82.5865H162.697L162.573 83.038H158.824L158.114 85.6763H162.339L162.215 86.1279H157.502L159.28 79.5611V79.5547Z" fill="white"/>
<path d="M163.718 84.2255C163.718 82.529 165.007 81.2259 166.446 81.2259C167.526 81.2259 168.119 81.8839 168.366 82.5676L169.258 79.2778H169.72L167.871 86.1284H167.409L167.656 85.1995C167.175 85.7736 166.517 86.251 165.658 86.251C164.538 86.251 163.718 85.4188 163.718 84.2319V84.2255ZM168.132 83.3224C168.132 82.3999 167.461 81.6517 166.465 81.6517C165.157 81.6517 164.219 82.845 164.219 84.1674C164.219 85.1543 164.838 85.8059 165.717 85.8059C166.921 85.8059 168.132 84.5931 168.132 83.3224Z" fill="white"/>
<path d="M170.007 84.7097C170.007 84.5033 170.052 84.2582 170.111 84.0324L170.827 81.3296H171.289L170.553 84.0711C170.508 84.2517 170.475 84.4839 170.475 84.6646C170.475 85.3806 170.951 85.8192 171.712 85.8192C172.539 85.8192 173.444 85.0774 173.73 84.0389L174.459 81.336H174.921L173.632 86.1224H173.17L173.405 85.2322C172.929 85.7934 172.389 86.2385 171.575 86.2385C170.619 86.2385 169.994 85.6386 169.994 84.7162L170.007 84.7097Z" fill="white"/>
<path d="M175.638 84.1677C175.638 82.6002 176.953 81.2197 178.476 81.2197C179.459 81.2197 180.077 81.7745 180.37 82.3744L179.98 82.5873C179.687 82.0777 179.251 81.6519 178.443 81.6519C177.213 81.6519 176.133 82.8259 176.133 84.1354C176.133 85.2127 176.92 85.7932 177.76 85.7932C178.385 85.7932 178.88 85.5223 179.322 85.1095L179.635 85.4062C179.14 85.8771 178.528 86.2254 177.734 86.2254C176.673 86.2254 175.631 85.4771 175.631 84.1612L175.638 84.1677Z" fill="white"/>
<path d="M180.709 84.8899C180.709 83.832 181.62 83.1547 182.883 83.1547C183.573 83.1547 184.257 83.2966 184.738 83.4256L184.777 83.2966C184.816 83.1547 184.842 82.9483 184.842 82.8192C184.842 82.0968 184.328 81.6968 183.384 81.6968C182.857 81.6968 182.447 81.7936 181.985 81.9484L181.9 81.5356C182.375 81.3679 182.825 81.2646 183.423 81.2646C184.608 81.2646 185.298 81.8387 185.298 82.7547C185.298 82.9354 185.259 83.1676 185.207 83.3804L184.471 86.122H184.016L184.231 85.2963C183.768 85.8381 183.13 86.2316 182.291 86.2316C181.451 86.2316 180.709 85.7801 180.709 84.8899ZM184.537 84.2126L184.647 83.7933C184.152 83.6707 183.528 83.5675 182.818 83.5675C181.855 83.5675 181.197 84.09 181.197 84.8318C181.197 85.4253 181.653 85.8059 182.369 85.8059C183.28 85.8059 184.263 85.1802 184.53 84.2126H184.537Z" fill="white"/>
<path d="M186.599 85.2583C186.599 85.1099 186.625 84.9229 186.658 84.8003L187.484 81.7621H186.781L186.892 81.3428H187.595L188.012 79.814H188.474L188.057 81.3428H189.724L189.613 81.7621H187.947L187.126 84.8132C187.1 84.9358 187.081 85.1035 187.081 85.2196C187.081 85.6131 187.387 85.7937 187.868 85.7937C188.077 85.7937 188.292 85.7485 188.571 85.6453L188.448 86.0969C188.194 86.1936 188.012 86.2194 187.764 86.2194C187.12 86.2194 186.612 85.9292 186.612 85.2712L186.599 85.2583Z" fill="white"/>
<path d="M191.155 81.3356H191.617L190.322 86.122H189.86L191.155 81.3356ZM191.604 79.4585H192.184L192.014 80.0842H191.435L191.604 79.4585Z" fill="white"/>
<path d="M192.4 84.1096C192.4 82.6002 193.728 81.2197 195.271 81.2197C196.546 81.2197 197.419 82.1099 197.419 83.342C197.419 84.8966 196.045 86.2319 194.548 86.2319C193.272 86.2319 192.4 85.3417 192.4 84.1096ZM196.917 83.3613C196.917 82.2841 196.227 81.6519 195.225 81.6519C194.001 81.6519 192.908 82.813 192.908 84.0903C192.908 85.1675 193.598 85.7997 194.6 85.7997C195.772 85.7997 196.917 84.6837 196.917 83.3613Z" fill="white"/>
<path d="M199.435 81.3358H199.898L199.663 82.226C200.138 81.6648 200.679 81.2197 201.492 81.2197C202.449 81.2197 203.074 81.8196 203.074 82.7421C203.074 82.9485 203.029 83.1936 202.97 83.4194L202.247 86.1222H201.785L202.521 83.3807C202.566 83.2001 202.599 82.9678 202.599 82.7872C202.599 82.0712 202.124 81.6326 201.356 81.6326C200.535 81.6326 199.624 82.3744 199.338 83.4129L198.609 86.1157H198.146L199.435 81.3294V81.3358Z" fill="white"/>
</g>
<defs>
<clipPath id="clip0_257_2121">
<rect width="218" height="87.6382" fill="white"/>
</clipPath>
</defs>
</svg>
